<svg id="Calque_1" data-name="Calque 1" xmlns="http://www.w3.org/2000/svg" viewBox="0 0 290.36 289.77"><defs><style>.cls-1,.cls-3{fill:#f8b300;}.cls-2,.cls-6{fill:#313c8c;}.cls-2,.cls-3,.cls-4{stroke:#000;stroke-linecap:round;stroke-linejoin:round;}.cls-4{fill:#fdfffe;}.cls-5{fill:#1f3183;}.cls-7{fill:#bb885b;}</style></defs><path class="cls-1" d="M144.61,289.27a143.73,143.73,0,0,1-83.55-26.42,166,166,0,0,0,82.31,21.78,164.77,164.77,0,0,0,95.94-30.43A145,145,0,0,1,144.61,289.27Z"/><path d="M230.09,260.86a144.65,144.65,0,0,1-159.38,7.63,166.38,166.38,0,0,0,72.66,16.64,165.16,165.16,0,0,0,86.72-24.27m17.13-13.25a165.9,165.9,0,0,1-194.5,9.56,145.88,145.88,0,0,0,194.5-9.56Z"/><path class="cls-2" d="M288.28,124.28a144.37,144.37,0,0,0-45.79-86.13,164.7,164.7,0,0,0-183.75-9A144.62,144.62,0,0,0,55,258.24,164.67,164.67,0,0,0,245.82,249a144.25,144.25,0,0,0,43.32-90.17c.42-4.5.64-9.07.64-13.68A145,145,0,0,0,288.28,124.28Zm-6.09,38h0c-10,58.52-67.57,103.39-137.08,103.39-67.65,0-124-42.5-136.17-98.72a107.89,107.89,0,0,1-.55-43C19.33,66.34,76.38,22.48,145.1,22.48c67.66,0,124,42.52,136.19,98.75a108,108,0,0,1,.9,41Z"/><path class="cls-3" d="M242.49,38.15a164.7,164.7,0,0,0-183.75-9,144.66,144.66,0,0,1,183.75,9Z"/><path class="cls-4" d="M281.29,121.23A342.8,342.8,0,0,0,147.9,94.62,342,342,0,0,0,8.38,123.89C19.33,66.34,76.38,22.48,145.1,22.48,212.76,22.48,269.11,65,281.29,121.23Z"/><path class="cls-3" d="M283.73,144.06a108.18,108.18,0,0,1-1.54,18.18h0A329.8,329.8,0,0,1,140.4,193.78,330.63,330.63,0,0,1,8.93,166.91a107.89,107.89,0,0,1-.55-43A342,342,0,0,1,147.9,94.62a342.8,342.8,0,0,1,133.39,26.61A107.81,107.81,0,0,1,283.73,144.06Z"/><path class="cls-4" d="M282.18,162.24c-10,58.52-67.57,103.39-137.08,103.39-67.65,0-124-42.5-136.17-98.72A330.63,330.63,0,0,0,140.4,193.78,329.8,329.8,0,0,0,282.18,162.24Z"/><path class="cls-5" d="M57.36,150.84q4.74-.71,9.49-1.49c.79,2.8,2.84,4.29,6.14,4.41q3.86.13,3.86-2.08a2.15,2.15,0,0,0-.89-1.82,9.37,9.37,0,0,0-3.19-1.2c-5.84-1.29-9.58-2.84-11.24-4.68A9.25,9.25,0,0,1,59,137.56a10.83,10.83,0,0,1,3.57-8.12c2.39-2.27,5.81-3.62,10.28-3.91,6.79-.45,11.27,2.3,13.45,8.3-2.82,1-5.65,2-8.47,3a5,5,0,0,0-5.34-3.43c-2.23.08-3.34.86-3.34,2.31a1.7,1.7,0,0,0,.75,1.49,8.91,8.91,0,0,0,2.93,1,51.92,51.92,0,0,1,8.49,2.29,9.1,9.1,0,0,1,4.2,3.65,11.19,11.19,0,0,1,1.68,6.18,10.84,10.84,0,0,1-4.1,8.95c-2.73,2.18-6.32,3.1-10.76,2.81C64.27,161.51,59.26,157.63,57.36,150.84Z"/><path class="cls-5" d="M109.19,163.23l-1.89-7.69c-3,0-6-.12-8.93-.19q-1,3.74-2,7.42c-2.77-.11-5.53-.24-8.3-.37,3.43-12.22,6.86-24.79,10.28-37.62,3.61-.14,7.22-.27,10.82-.37,3.49,12.83,7,25.89,10.46,39.08Q114.41,163.39,109.19,163.23Zm-9.08-16.18,5.4,0q-1.35-5.6-2.7-11.15Q101.46,141.51,100.11,147.05Z"/><path class="cls-5" d="M149.56,123.94c-3.45,13.23-6.9,26.52-10.35,39.78-3.48,0-7,0-10.43-.08-3.61-13.26-7.22-26.45-10.82-39.46,3.59-.08,7.19-.14,10.78-.18q2.64,10.77,5.28,21.61.54,1.92,1,3.78,3.08-12.72,6.16-25.48C144,123.91,146.75,123.92,149.56,123.94Z"/><path class="cls-5" d="M166.14,164.07a13.61,13.61,0,0,1-11.47-5.36c-2.95-3.67-4.43-8.64-4.43-14.85,0-5.94,1.41-10.85,4.24-14.69a13.36,13.36,0,0,1,11.76-5.61,14.45,14.45,0,0,1,11.35,5.64c2.92,3.63,4.38,8.35,4.38,14.24,0,6.09-1.47,11-4.42,14.76A14.29,14.29,0,0,1,166.14,164.07Zm0-8.92a3.93,3.93,0,0,0,3.73-2.7c.76-1.78,1.13-5,1.13-9.71q0-10.19-4.66-10.25c-3.36-.05-5,3.86-5,11.69Q161.26,155.2,166.09,155.15Z"/><path class="cls-5" d="M196.52,125.23v37.18l-10.23.45V124.78Q191.4,125,196.52,125.23Z"/><path class="cls-5" d="M227.38,152.52v8q-12.51,1-25,1.63V125.53q12.53.66,25,1.62v7.7q-7.5-.32-15-.57v5.14q6.07.09,12.14.21v7.49l-12.14.16v5.79Q219.88,152.82,227.38,152.52Z"/><path class="cls-5" d="M191.36,121.53c-1.63.89-3.25,1.75-4.87,2.55q.47-2.76.93-5.55c-1.32-1.33-2.63-2.65-3.94-3.9l5.44-.89,2.44-5.15c.81,1.71,1.62,3.44,2.44,5.15l5.44.89c-1.31,1.25-2.63,2.57-3.94,3.9q.47,2.79.93,5.55C194.61,123.28,193,122.42,191.36,121.53Z"/><path class="cls-5" d="M99.75,225.44c.86-1.42,1.59-2.92,2.57-4.27a20.4,20.4,0,0,1,6.87-6.13,11.12,11.12,0,0,1-.94,1c-.9.78-1.91,1.46-2.77,2.28-5.56,5.26-7.78,11.4-4.86,18.82,2.14,5.4,6.58,9.75,12.3,13.23a53.87,53.87,0,0,0,23.43,7.33,59.61,59.61,0,0,0,30.6-5c.83-.39,1.72-.7,2.58-1.06a10.15,10.15,0,0,1-1.33.92A59.87,59.87,0,0,1,135.67,258c-10.72-1-20.56-4.6-28-10.91-5.43-4.58-8.69-10-8.76-16.1,0-.6,0-1.2,0-1.8C99.15,228,99.45,226.7,99.75,225.44Z"/><path class="cls-5" d="M145.61,206.54c1.23.15,2.46.28,3.7.4,8.39.83,16.29,2.61,24,6.93.75.42,1.44.94,2.16,1.41a6.31,6.31,0,0,1-1.33-.45,45.11,45.11,0,0,0-11-4.85,73.82,73.82,0,0,0-31.57-2.27,56.51,56.51,0,0,0-17.71,5.11c-1.38.67-2.74,1.38-4.14,2.05a12.31,12.31,0,0,1,4.37-2.65,62.53,62.53,0,0,1,21.14-5.3c1.14-.09,2.28-.24,3.42-.38Q142.11,206.62,145.61,206.54Z"/><path class="cls-5" d="M175.42,215.25a21.55,21.55,0,0,1,8.55,9.41,6.44,6.44,0,0,0,.5.78c.31,1.26.61,2.52.91,3.78a27.28,27.28,0,0,1-.18,3.61,41.47,41.47,0,0,1-1.12,4.42c-.07.24-.35.46-.54.69.2-.73.37-1.46.58-2.18A15.26,15.26,0,0,0,184,226a21.13,21.13,0,0,0-7.47-9.54A10.61,10.61,0,0,1,175.42,215.25Z"/><path class="cls-5" d="M170.81,251.08c.21-.26.34-.6.63-.78,5.28-3.25,9.37-7.28,11.79-12.15.05-.11.23-.18.35-.27a13.51,13.51,0,0,1-.79,2A30.49,30.49,0,0,1,170.81,251.08Z"/><path class="cls-5" d="M152.63,235.72c2.2-.13,4.34-.29,6.47-.48,1.48-.14,2-.45,2-1.08s-.67-.83-2.13-.69c-2.11.2-4.23.35-6.23.46-.16-.18-.21-.21-.22-.25-.63-2.89-.62-2.86,2.76-3.09,1.35-.1,2.69-.21,4-.34.72-.07,1.32-.32,1.19-1.05s-.7-.72-1.35-.66c-2.76.27-5.53.5-8.3.59-.87,0-1,.45-1.23,1-.86,2.58-1.84,5.13-2.74,7.71-.29.84-.68,1.21-1.81,1.21-2.44,0-2.46,0-3.23-1.85-.87-2.14-1.7-4.3-2.5-6.45-.51-1.37-.51-1.36-2.18-1.62,0-.89.05-1.8.08-2.82,1.5,0,3,.07,4.66.07.75,2.06,1.55,4.2,2.51,6.67.62-1.66,1.15-3,1.59-4.39.77-2.44.75-2.43,3.55-2.54,3-.13,6.07-.34,9.1-.61a11.18,11.18,0,0,1,1.73-.07c1.64.11,3.1.58,3.8,2a3,3,0,0,1-.93,3.8c1.2.66,2.07,1.45,2.14,2.72a3.23,3.23,0,0,1-1.92,3.23,7.62,7.62,0,0,1-2.49.87c-2.67.34-5.36.51-8.16.66C152.74,237.74,152.69,236.81,152.63,235.72Zm-15-7a1.64,1.64,0,0,1,2.11,1.29c.88,2.57,2,5.1,2.91,7.66.36,1,1.18.78,2,.78s1.43,0,1.73-.87c.82-2.55,1.8-5,2.66-7.59.46-1.36.46-1.36,2-1.44,2.12-.11,4.25-.25,6.37-.43.63,0,1.27-.14,1.91-.16,1.06,0,1.69.4,1.79,1.19s-.4,1.38-1.45,1.57a14.39,14.39,0,0,1-1.61.16c-1.65.15-3.31.27-5,.37.05.79.08,1.41.13,2.17l1.68-.11c1.69-.11,3.38-.28,5.07-.41,1.1-.08,1.74.34,1.85,1.14s-.44,1.41-1.47,1.61a12.53,12.53,0,0,1-1.49.15c-1.81.17-3.62.3-5.42.41,0,.72.08,1.28.12,1.93,2.26-.14,4.38-.3,6.49-.5a4.87,4.87,0,0,0,1.17-.14,10.71,10.71,0,0,0,2.74-1.32c1.63-1.38,1.1-3.47-.85-4.3-.3-.13-.62-.25-.91-.36,0-.16,0-.21.08-.24a1.34,1.34,0,0,1,.34-.29,2.32,2.32,0,0,0,1.32-2.66,2.83,2.83,0,0,0-2.5-2.19,8.36,8.36,0,0,0-2.18-.09c-3.25.28-6.5.52-9.76.65-2.25.09-2.23.08-2.89,2.05s-1.28,3.68-2.05,5.76c-.25-.55-.39-.85-.51-1.15-.76-1.88-1.46-3.77-2.2-5.64-.14-.33-.52-.79-.84-.82-1.06-.11-2.14-.06-3.24-.09C137.64,227.56,137.63,228.06,137.61,228.74Z"/><path class="cls-5" d="M114.48,220.74c.46-.09,13.73,2,27.13,1.87,13.4.2,26.92-1.9,27.92-1.9a3.32,3.32,0,0,1-.78.49,12.22,12.22,0,0,1-1.37.22,174.35,174.35,0,0,1-50.85,0l-2.1-.33C114.45,221,114.46,220.85,114.48,220.74Z"/><path class="cls-5" d="M111.33,239.68c.72-.08,15.65,2.31,30.55,2.12,14.91.22,29.79-2.13,30.4-2.05,0,.05,0,.1,0,.14a.19.19,0,0,1-.12.09,6.09,6.09,0,0,1-.81.22,193,193,0,0,1-59.69-.2C111.6,240,111.53,239.87,111.33,239.68Z"/><path class="cls-5" d="M130.57,230.44c-.06.94-.11,1.76-.17,2.78-1.89-.12-3.71-.27-5.53-.44s-1.79-.17-2,1.32c-.14,1.27-.26,2.55-.4,3.88-1.41-.14-2.62-.28-4-.45.33-2.66.66-5.33,1-8.12C123.15,229.85,126.8,230.2,130.57,230.44Zm-.69.35c-3.37-.23-6.57-.53-9.81-.92l-.89,7.23c.58.07,1,.13,1.45.17,1.41.15,1.42.14,1.55-1s.21-2,.33-3,.14-1.12,1.49-1c1.88.17,3.77.34,5.74.47C129.79,232,129.83,231.46,129.88,230.79Z"/><path class="cls-5" d="M135.23,253.85c-.16.85-.31,1.68-.53,2.81-.43-.42-.73-.59-.71-.73.14-1.56.35-3.12.51-4.69.06-.59.45-.78,1.18-.71.89.09,1.78.12,2.67.21s1.88.39,2.1,1.26-.21,1.44-1.23,1.8a5.58,5.58,0,0,0-.54.25c.59.83,1.18,1.66,2,2.76-.67-.14-1.13-.13-1.31-.3a4.76,4.76,0,0,1-.91-1.2C137.9,254.3,137,253.75,135.23,253.85Zm0-.68a22.71,22.71,0,0,0,3,.05,1.43,1.43,0,0,0,1-.71,1.07,1.07,0,0,0-.65-.95,9,9,0,0,0-2.92-.19C135.5,251.4,135.47,252.4,135.27,253.17Z"/><path class="cls-5" d="M130.88,226.06c-.07,1-.12,1.84-.18,2.82-3.66-.23-7.27-.57-11-1,.12-.9.23-1.79.35-2.8C123.61,225.48,127.16,225.82,130.88,226.06Zm-.7.41c-3.05-.2-6-.48-9-.83-.55-.07-.77.18-.81.61s0,.72,0,1.14c3.27.4,6.47.7,9.73.92C130.1,227.7,130.13,227.17,130.18,226.47Z"/><path class="cls-5" d="M169.23,250.14c-1.57-1.51-3-2.94-4.54-4.49.9-.56,1.72-1.16,2.62-1.66a3.18,3.18,0,0,1,3.63,0,6.48,6.48,0,0,1,1.62,1.69c.6.93.32,1.89-.73,2.68C171,249,170.18,249.52,169.23,250.14Zm.24-1c1.21-.75,2.54-1.31,2.42-2.6a3.38,3.38,0,0,0-2.65-2.25c-1.46-.12-2.29.72-3.19,1.51C167.2,246.91,168.3,248,169.47,249.1Z"/><path class="cls-5" d="M142.66,253.73c0-1.87,1.37-3.06,3.57-3.11s3.62,1.1,3.72,3-1.27,3-3.47,3.09S142.68,255.53,142.66,253.73Zm1,.06a4,4,0,0,0,.22,1,2.7,2.7,0,0,0,2.7,1.28,2.22,2.22,0,0,0,2.23-1.72,3.62,3.62,0,0,0,0-1.09,2.41,2.41,0,0,0-2.76-2A2.31,2.31,0,0,0,143.7,253.79Z"/><path class="cls-5" d="M131.84,230.46c1.32.08,2.54.13,3.85.18-.1,2.73-.19,5.39-.29,8.18-1.27,0-2.58-.1-4-.18C131.53,236,131.68,233.3,131.84,230.46Zm3.27.52-1.43-.06c-1.34,0-1.35-.06-1.42,1.08-.08,1.42-.15,2.84-.22,4.27-.11,2.06-.11,2.07,2.46,2,.1,0,.19-.08.34-.16C134.93,235.82,135,233.49,135.11,231Z"/><path class="cls-5" d="M163.81,246.76c-1.55.71-2.81,1.26-4.21,1.86.32.56.6,1,.92,1.58,1.33-.51,2.53-1,3.72-1.46l.26.36c-.82.9-2.41,1-3.49,1.81.29.49.59,1,1,1.64,1.5-.54,2.91-1.06,4.31-1.61l.24.39a32.9,32.9,0,0,1-5,2.21c-1.09-1.74-2.09-3.37-3.07-5A9.8,9.8,0,0,1,163.81,246.76Z"/><path class="cls-5" d="M121,211.6a3.26,3.26,0,0,1,2.56,3.54,2.94,2.94,0,0,1-3.39,2.22,3.2,3.2,0,0,1-2.65-3.54A3.07,3.07,0,0,1,121,211.6Zm1.8,3.45a2.85,2.85,0,0,0-2.07-2.85,2.12,2.12,0,0,0-2.41,1.7,2.69,2.69,0,0,0,2,2.86A2.11,2.11,0,0,0,122.78,215.05Z"/><path class="cls-5" d="M117.54,251.61c.7-1.84,2.15-3.39,3.13-5.27,1.28.56,2.46,1,3.56,1.54a1.39,1.39,0,0,1,.75,2,2,2,0,0,1-2.36,1,25.34,25.34,0,0,1-2.92-1l-1.59,2Zm3.7-4.28c-1.32,1.91-1.13,2.32,1.13,2.8a1.39,1.39,0,0,0,1.62-.5c.33-.51.16-1-.49-1.34S122.05,247.68,121.24,247.33Z"/><path class="cls-5" d="M127.27,252.53l-1.13,2.15-.51-.14c.06-1.93,1.31-3.61,1.75-5.61,1.33.34,2.48.56,3.57.9,1.31.4,1.73,1,1.45,1.95s-1.21,1.46-2.55,1.29C129,253,128.21,252.74,127.27,252.53Zm.16-.75c.78.2,1.44.41,2.12.53s1.6.06,1.85-.67-.27-1.13-1.12-1.33c-.67-.17-1.35-.32-2.14-.51C127.9,250.48,127.68,251.08,127.43,251.78Z"/><path class="cls-5" d="M114.76,250.22a3.18,3.18,0,0,1,.08-1.2c.55-1.13-.81-1.39-1.47-2s-1.22-.3-1.85-.05c-.47.18-1,.79-1.55-.18,2-.83,4-1.71,5.92-2.58.76-.34,1.42-.06,1.27.53a24.78,24.78,0,0,1-1.9,5.55Zm-1.45-4,2,1.31c.37-.9.7-1.67,1.13-2.74C115.25,245.32,114.39,245.71,113.31,246.2Z"/><path class="cls-5" d="M153.81,214.38c1.15-1.43,2.26-2.87,3.37-4.29a.61.61,0,0,1,1.16.27c.32,1.76.6,3.52.89,5.29-.94.18-.9-.41-.9-.82,0-1.13-.93-1.1-1.68-1.36a1.24,1.24,0,0,0-1.67.63C154.78,214.44,154.51,215,153.81,214.38Zm3.93-3.54-.28,0-1.41,1.95c.74.18,1.28.3,1.92.44C157.88,212.32,157.81,211.58,157.74,210.84Z"/><path class="cls-5" d="M148.11,209.88l-.64-.59a1.9,1.9,0,0,0-3.24.76,2.31,2.31,0,0,0,1,3,2,2,0,0,0,2.32-.56,10.36,10.36,0,0,1,1-.79c-.39,1.71-1.23,2.25-2.77,2.1a2.66,2.66,0,0,1-2.46-2.9,2.79,2.79,0,0,1,2.52-2.85C147.12,207.92,148,208.48,148.11,209.88Z"/><path class="cls-5" d="M136.62,227.33a2.54,2.54,0,0,1-2.72,2.37,2.58,2.58,0,0,1-2.69-2.46,2.74,2.74,0,0,1,5.41.09Zm-2.87.1.45-.37c.05.66.11,1.33.16,2,1.55-.37,2-1.19,1.5-2.45l-1.39.36,1-.9a1.34,1.34,0,0,0-.2-.21,1.93,1.93,0,0,0-2.43.15c-.85.84.76.75.66,1.31l-1.53-.59a5.83,5.83,0,0,0-.11.67c0,.55,1,1.85,1.41,1.73C134.32,228.82,133.9,228.08,133.75,227.43Z"/><path class="cls-5" d="M157.08,248.92c0,.44-.05.87-.1,1.3-.17,1.38-.33,2.76-.57,4.14,0,.31-.41.59-.62.89a3.36,3.36,0,0,1-1-.46c-1.43-1.43-2.79-2.89-4.36-4.61,1.93.12,2.1,1.26,2.82,1.91s1.38,1.43,2.22,2.31c.59-2,.18-3.82,1-5.53Z"/><path class="cls-5" d="M136.76,210.72c-.95,1-2,.47-3,1,0,.55.14,1.18.15,1.81,0,.19-.22.38-.33.58-.14-.15-.39-.3-.41-.46-.2-1.64-.36-3.28-.53-5,1.34-.13,2.58-.27,3.85-.42-.18.67-.18.67-1.25.77-.56,0-1.11.13-1.76.21.07.6.13,1.08.2,1.67C134.66,210.83,135.56,210.79,136.76,210.72Z"/><path class="cls-5" d="M129.69,212c-.82.25-1.65.49-2.7.79.15.59.33,1.19.43,1.8,0,.21-.15.46-.23.68-.18-.17-.48-.31-.53-.52-.41-1.56-.76-3.14-1.13-4.87,1.33-.27,2.58-.54,3.83-.82,0,.11.07.21.11.32-.72.91-2.1.42-3,1.1a1.78,1.78,0,0,0,0,.4c.27,1.21.27,1.2,1.51,1,.51-.1,1-.17,1.55-.26C129.62,211.76,129.66,211.9,129.69,212Z"/><path class="cls-5" d="M164.12,211.65c-.3,1.6-1.41,2.95-1.88,4.59l2.68,1.23-.18.39a20.51,20.51,0,0,1-3.59-1.28c.77-1.78,1.57-3.47,2.44-5.13Z"/><path class="cls-5" d="M140.3,208.08a41.82,41.82,0,0,1,.22,5.51c-.7-.3-.72-.3-.78-2.57,0-1,0-2,0-2.93Z"/><path class="cls-5" d="M151.28,214.31c-.1-.21-.32-.42-.29-.61.2-1.5.44-3,.68-4.48,0-.17.26-.3.39-.46.12.2.36.41.33.59-.22,1.63-.49,3.26-.77,4.88Z"/><path class="cls-6" d="M120.76,50.1a2.28,2.28,0,0,1-.38.81l-1.14,1.9c-.5.83-1.1,1.9-1.8,3.2s-1.39,2.73-2.09,4.31c-.8,1.81-1.36,3.23-1.69,4.25a7.11,7.11,0,0,0-.4,2.62,1.88,1.88,0,0,0,1.06,1.42,18.31,18.31,0,0,0,2.06-2.2,31.59,31.59,0,0,0,2-2.78c.66-1,1.41-2.29,2.28-3.83s1.65-2.94,2.34-4.22c0-.1-.09-.2-.14-.3a.6.6,0,0,1-.07-.26,3.29,3.29,0,0,1,.27-1.52,7.76,7.76,0,0,1,.8-1.41c.33-.46.83-1.11,1.49-2a.88.88,0,0,1,.68-.35c.44,0,.68.23.7.76a7.64,7.64,0,0,1-.59,2.49,34.37,34.37,0,0,1-1.84,4.05c-.81,1.55-1.82,3.3-3,5.25s-2.52,4-4,6.14-2.55,3.3-3.24,3.35a2.18,2.18,0,0,1-1.4-.52,5.42,5.42,0,0,1-1.45-1.63,5.49,5.49,0,0,1-.76-2.31,7.65,7.65,0,0,1,.15-2,24.11,24.11,0,0,1,.78-2.91,34.3,34.3,0,0,1,1.33-3.38c.53-1.18,1-2.15,1.44-2.93s.9-1.64,1.45-2.59a10,10,0,0,0,.81-1.54c0-.17-.14-.24-.39-.23a6.2,6.2,0,0,0-2.77,1.23,44.84,44.84,0,0,0-4.34,3.45q-1,.89-1.26,1.14c-.17.17-.25.31-.24.41s.13.19.36.17.42-.08,1-.2a11.17,11.17,0,0,1,1.32-.22c.54-.05.82,0,.84.2s-.09.29-.3.4a7.56,7.56,0,0,1-.9.36l-1.57.52a16.42,16.42,0,0,0-2.22,1,8.89,8.89,0,0,1-1.34.66c-.23,0-.38,0-.45-.19A2.78,2.78,0,0,1,104,60a6.88,6.88,0,0,1,.45-3.82,10.11,10.11,0,0,1,2.8-3.06A35.68,35.68,0,0,1,111.85,50a27.34,27.34,0,0,1,3.93-1.9,9.89,9.89,0,0,1,2.48-.68,2.16,2.16,0,0,1,1.62.82A3,3,0,0,1,120.76,50.1Z"/><path class="cls-6" d="M135.52,63.46c0,.38,0,.77,0,1.15a10.19,10.19,0,0,1-1.85,1.4,4.37,4.37,0,0,1-2,.32c-1.48,1.8-2.78,2.72-3.94,2.77a2.89,2.89,0,0,1-1.82-.56,4.37,4.37,0,0,1-1.37-1.66,5.88,5.88,0,0,1-.61-2.42,5,5,0,0,1,.63-2.46,10.73,10.73,0,0,1,1.87-2.57,10.93,10.93,0,0,1,2.54-2,5.75,5.75,0,0,1,2.58-.78,2.9,2.9,0,0,1,1.35.21.77.77,0,0,1,.51.68,1.3,1.3,0,0,1-.4.8,1.53,1.53,0,0,1,.95.43,2,2,0,0,1,.28,1.15,7.13,7.13,0,0,1-.37,2.07,10.47,10.47,0,0,1-1,2.37l.32.3h.27a1.27,1.27,0,0,0,.59-.16,3.57,3.57,0,0,0,.52-.31Zm-3.79-4.41c-1,.59-1.82,1.14-2.51,1.62a12.17,12.17,0,0,0-1.74,1.47,3.8,3.8,0,0,0-.93,1.46c-.24,1.29-.36,2-.35,2.09,0,.75.59,1.1,1.67,1.06a5.65,5.65,0,0,0,2.5-1.36,4.57,4.57,0,0,1-.35-1.52,5.66,5.66,0,0,1,.4-2.21A16.69,16.69,0,0,1,131.73,59.05Z"/><path class="cls-6" d="M144,63.29c0,.42,0,.84,0,1.26-2.51,3.13-4.47,4.72-6,4.73a2.19,2.19,0,0,1-2-1.3,7.43,7.43,0,0,1-.76-3.47,12.53,12.53,0,0,1,.79-4.16,27.4,27.4,0,0,1,2.28-4.89,28.2,28.2,0,0,1,3.06-4.31,10.76,10.76,0,0,1,3-2.56,1.92,1.92,0,0,1,.88-.29.51.51,0,0,1,.52.32,3.24,3.24,0,0,1,.11,1.09,12.32,12.32,0,0,1-2.15,5.81,39.84,39.84,0,0,1-5.7,7.06,7.24,7.24,0,0,0-.17,1.37,3,3,0,0,0,.5,1.77,1.59,1.59,0,0,0,1.36.68,1.72,1.72,0,0,0,.95-.34,8.87,8.87,0,0,0,1.09-.82Zm-5.35-3.09a19.6,19.6,0,0,0,1.81-2,28.47,28.47,0,0,0,1.67-2.37,21.86,21.86,0,0,0,1.25-2.27,4.18,4.18,0,0,0,.46-1.51c0-.26-.09-.4-.29-.4a1.08,1.08,0,0,0-.42.19,10.61,10.61,0,0,0-2.53,3.33A18.23,18.23,0,0,0,138.66,60.2Z"/><path class="cls-6" d="M152.38,63.48l0,1.27c-2.59,3.06-4.59,4.59-6.12,4.57A2.2,2.2,0,0,1,144.27,68a7.41,7.41,0,0,1-.68-3.48,12.61,12.61,0,0,1,.9-4.14,29.67,29.67,0,0,1,5.58-9.06,10.86,10.86,0,0,1,3.06-2.48,2,2,0,0,1,.89-.27.51.51,0,0,1,.51.34,3.37,3.37,0,0,1,.08,1.08,12.16,12.16,0,0,1-2.3,5.76,39.81,39.81,0,0,1-5.88,6.91,7.84,7.84,0,0,0-.2,1.37,3,3,0,0,0,.46,1.78,1.56,1.56,0,0,0,1.34.71,1.72,1.72,0,0,0,1-.31,9.41,9.41,0,0,0,1.1-.8C150.48,65.06,151.24,64.42,152.38,63.48Zm-5.27-3.22A19.14,19.14,0,0,0,149,58.32,26.06,26.06,0,0,0,150.69,56,19.78,19.78,0,0,0,152,53.76a4.3,4.3,0,0,0,.5-1.51c0-.26-.08-.39-.28-.4a1.1,1.1,0,0,0-.43.17,10.91,10.91,0,0,0-2.61,3.27A18.11,18.11,0,0,0,147.11,60.26Z"/><path class="cls-6" d="M155,64.39c0,.14,0,.29,0,.43a2.27,2.27,0,0,0,.45,1.59,1.74,1.74,0,0,0,1.31.63,4.63,4.63,0,0,0,1.82-.3,10.08,10.08,0,0,0,1.9-.93c.64-.39,1.43-.93,2.37-1.59,0,.34-.05.69-.07,1a23.64,23.64,0,0,1-4,3.32,6.19,6.19,0,0,1-3.59,1.06,3,3,0,0,1-2.42-1.28,5.17,5.17,0,0,1-.8-3.27,6.17,6.17,0,0,1,1-3.22,12.08,12.08,0,0,1,3-3,10.61,10.61,0,0,1,2.82-1.53,6.19,6.19,0,0,1,2.47-.42,2.18,2.18,0,0,1,1.33.45,1.24,1.24,0,0,1,.42,1.13,3.43,3.43,0,0,1-1,2.09,9.91,9.91,0,0,1-2.7,1.95A28.16,28.16,0,0,1,155,64.39Zm.23-1.1a10.77,10.77,0,0,0,2.83-1.35,8.06,8.06,0,0,0,1.79-1.6,2.55,2.55,0,0,0,.62-1.16.33.33,0,0,0-.36-.41,2.86,2.86,0,0,0-1.08.33,8.63,8.63,0,0,0-1.53.95,7,7,0,0,0-1.41,1.42A4.49,4.49,0,0,0,155.26,63.29Z"/><path class="cls-6" d="M171,65.54c-1.13.76-2.26,1.52-3.38,2.29C166,69,165,69.53,164.49,69.49s-.9-.58-1.33-1.63a6.32,6.32,0,0,1-.58-2.72,4,4,0,0,1,.43-1.63,11.33,11.33,0,0,1,1.2-1.67,21.45,21.45,0,0,1,2.29-2.29,15,15,0,0,1,1.92-1.42,2.54,2.54,0,0,1,1.13-.46,1.36,1.36,0,0,1,.91.56,1.44,1.44,0,0,1,.38,1,2.26,2.26,0,0,1-.59,1,15.76,15.76,0,0,1-1.73,1.68,39.37,39.37,0,0,1-3.16,2.4c-.14.3-.28.6-.41.91a1,1,0,0,0-.18.46.42.42,0,0,0,.44.5,6.83,6.83,0,0,0,2.43-1,33.5,33.5,0,0,0,4.29-2.9c.62-.48,1.13-.9,1.54-1.27s.79-.72,1.13-1a7.29,7.29,0,0,1,.83-.73A.94.94,0,0,1,176,59a.69.69,0,0,1,.67.43,2.23,2.23,0,0,1-.43,2.33c-.34.43-1,1.16-1.86,2.18s-1.79,2.09-2.68,3.2-1.79,2.38-2.71,3.79l1.17-.92c.74-.58,1.53-1.19,2.36-1.82s1.52-1.12,2.06-1.5,1.21-.8,2-1.28c-.05.37-.09.75-.13,1.13q-2.66,2.2-4.78,4.23c-1.42,1.35-2.5,2.45-3.26,3.27l-1.33,1.45c-.34.37-.65.72-.93,1s-.5.58-.68.76a.74.74,0,0,1-.42.25c-.24,0-.43-.28-.59-.76a3.43,3.43,0,0,1-.18-1.27,1.93,1.93,0,0,1,.25-.86A73.87,73.87,0,0,1,171,65.54Z"/><path class="cls-7" d="M122.16,49.1a2.63,2.63,0,0,1-.39.81l-1.14,1.9c-.5.83-1.1,1.9-1.8,3.2s-1.39,2.73-2.09,4.31c-.8,1.81-1.36,3.23-1.69,4.25a6.9,6.9,0,0,0-.4,2.62,1.88,1.88,0,0,0,1.06,1.42,18.31,18.31,0,0,0,2.06-2.2,31.59,31.59,0,0,0,2-2.78c.66-1,1.41-2.29,2.28-3.83s1.65-2.94,2.34-4.22c0-.1-.09-.2-.14-.3a.6.6,0,0,1-.07-.26,3.29,3.29,0,0,1,.27-1.52,7.76,7.76,0,0,1,.8-1.41c.33-.46.83-1.11,1.49-2a.88.88,0,0,1,.68-.35c.44,0,.68.23.7.76a7.64,7.64,0,0,1-.59,2.49,34.37,34.37,0,0,1-1.84,4.05c-.81,1.55-1.82,3.3-3,5.25s-2.52,4-4,6.14-2.55,3.3-3.24,3.35a2.18,2.18,0,0,1-1.4-.52,5.55,5.55,0,0,1-1.45-1.63,5.49,5.49,0,0,1-.76-2.31,7.65,7.65,0,0,1,.15-2,24.11,24.11,0,0,1,.78-2.91,32,32,0,0,1,1.33-3.38c.53-1.18,1-2.15,1.44-2.93s.9-1.64,1.45-2.59a10,10,0,0,0,.81-1.54c0-.17-.14-.24-.39-.23a6.2,6.2,0,0,0-2.77,1.23,44.84,44.84,0,0,0-4.34,3.45c-.67.59-1.08,1-1.26,1.14s-.25.31-.24.41.13.19.36.17.42-.08,1-.2a11.17,11.17,0,0,1,1.32-.22c.54-.05.82,0,.84.2s-.09.29-.3.4a7.56,7.56,0,0,1-.9.36l-1.57.52a16.42,16.42,0,0,0-2.22,1A8.89,8.89,0,0,1,106,60c-.23,0-.38,0-.45-.19a2.78,2.78,0,0,1-.17-.78,6.88,6.88,0,0,1,.45-3.82,10.11,10.11,0,0,1,2.8-3.06A35.68,35.68,0,0,1,113.24,49a27.34,27.34,0,0,1,3.93-1.9,9.89,9.89,0,0,1,2.48-.68,2.16,2.16,0,0,1,1.62.82A3,3,0,0,1,122.16,49.1Z"/><path class="cls-7" d="M136.91,62.46c0,.38,0,.77,0,1.15a10.19,10.19,0,0,1-1.85,1.4,4.35,4.35,0,0,1-2,.32c-1.48,1.8-2.78,2.72-3.94,2.77a2.89,2.89,0,0,1-1.82-.56,4.37,4.37,0,0,1-1.37-1.66,5.88,5.88,0,0,1-.61-2.42,5,5,0,0,1,.63-2.46,10.73,10.73,0,0,1,1.87-2.57,10.93,10.93,0,0,1,2.54-2,5.75,5.75,0,0,1,2.58-.78,2.9,2.9,0,0,1,1.35.21.77.77,0,0,1,.51.68,1.3,1.3,0,0,1-.4.8,1.53,1.53,0,0,1,1,.43,2,2,0,0,1,.28,1.15,7.13,7.13,0,0,1-.37,2.07,10.47,10.47,0,0,1-1,2.37l.32.3h.27a1.27,1.27,0,0,0,.59-.16,3.57,3.57,0,0,0,.52-.31Zm-3.79-4.41c-1,.59-1.82,1.13-2.51,1.62a12.17,12.17,0,0,0-1.74,1.47,3.8,3.8,0,0,0-.93,1.46c-.24,1.29-.36,2-.35,2.09,0,.75.59,1.1,1.67,1.06a5.65,5.65,0,0,0,2.5-1.36,4.57,4.57,0,0,1-.35-1.52,5.66,5.66,0,0,1,.4-2.21A16.69,16.69,0,0,1,133.12,58.05Z"/><path class="cls-7" d="M145.4,62.29v1.26c-2.51,3.13-4.47,4.72-6,4.73a2.19,2.19,0,0,1-2-1.3,7.46,7.46,0,0,1-.76-3.47,12.53,12.53,0,0,1,.79-4.16,27.4,27.4,0,0,1,2.28-4.89,28.2,28.2,0,0,1,3.06-4.31,10.76,10.76,0,0,1,3-2.56,1.89,1.89,0,0,1,.88-.29.51.51,0,0,1,.52.32,3.24,3.24,0,0,1,.11,1.09,12.32,12.32,0,0,1-2.15,5.81,39.84,39.84,0,0,1-5.7,7.06,7.24,7.24,0,0,0-.17,1.37,3,3,0,0,0,.5,1.77,1.59,1.59,0,0,0,1.36.68,1.72,1.72,0,0,0,1-.34,8.87,8.87,0,0,0,1.09-.82Zm-5.35-3.09a19.6,19.6,0,0,0,1.81-2,28.47,28.47,0,0,0,1.67-2.37,21.86,21.86,0,0,0,1.25-2.27,4.18,4.18,0,0,0,.46-1.51c0-.26-.09-.4-.29-.4a1.08,1.08,0,0,0-.42.19A10.61,10.61,0,0,0,142,54.18,18.23,18.23,0,0,0,140.05,59.2Z"/><path class="cls-7" d="M153.77,62.48l-.05,1.27c-2.59,3.06-4.59,4.59-6.12,4.57A2.2,2.2,0,0,1,145.66,67a7.41,7.41,0,0,1-.68-3.48,12.61,12.61,0,0,1,.9-4.14,29.67,29.67,0,0,1,5.58-9.06,10.86,10.86,0,0,1,3.06-2.48,2,2,0,0,1,.89-.27.51.51,0,0,1,.51.34A3.37,3.37,0,0,1,156,49a12.16,12.16,0,0,1-2.3,5.76,39.81,39.81,0,0,1-5.88,6.91,7.84,7.84,0,0,0-.2,1.37,3,3,0,0,0,.46,1.78,1.56,1.56,0,0,0,1.34.71,1.72,1.72,0,0,0,1-.31,9.41,9.41,0,0,0,1.1-.8C151.87,64.06,152.63,63.42,153.77,62.48Zm-5.27-3.22a19.14,19.14,0,0,0,1.85-1.94A26.06,26.06,0,0,0,152.08,55a19.78,19.78,0,0,0,1.31-2.23,4.3,4.3,0,0,0,.5-1.51c0-.26-.08-.39-.28-.4a1.1,1.1,0,0,0-.43.17,10.91,10.91,0,0,0-2.61,3.27A18.11,18.11,0,0,0,148.5,59.26Z"/><path class="cls-7" d="M156.42,63.39c0,.14,0,.29,0,.43a2.27,2.27,0,0,0,.45,1.59,1.74,1.74,0,0,0,1.31.63,4.63,4.63,0,0,0,1.82-.3,10.08,10.08,0,0,0,1.9-.93c.64-.39,1.43-.93,2.37-1.59,0,.34-.05.69-.07,1a23.64,23.64,0,0,1-4,3.32,6.19,6.19,0,0,1-3.59,1.06,3,3,0,0,1-2.42-1.28,5.17,5.17,0,0,1-.8-3.27,6.17,6.17,0,0,1,1-3.22,12.08,12.08,0,0,1,3-3,10.61,10.61,0,0,1,2.82-1.53A6.19,6.19,0,0,1,162.7,56a2.18,2.18,0,0,1,1.33.45,1.24,1.24,0,0,1,.42,1.13,3.43,3.43,0,0,1-1,2.09,9.91,9.91,0,0,1-2.7,1.95A28.16,28.16,0,0,1,156.42,63.39Zm.23-1.1a10.77,10.77,0,0,0,2.83-1.35,8.06,8.06,0,0,0,1.79-1.6,2.66,2.66,0,0,0,.62-1.16.33.33,0,0,0-.36-.41,2.86,2.86,0,0,0-1.08.33,8.63,8.63,0,0,0-1.53.95,7,7,0,0,0-1.41,1.42A4.49,4.49,0,0,0,156.65,62.29Z"/><path class="cls-7" d="M172.39,64.54c-1.13.76-2.26,1.52-3.38,2.29-1.59,1.14-2.63,1.7-3.13,1.66s-.9-.58-1.33-1.63a6.32,6.32,0,0,1-.58-2.72,4,4,0,0,1,.43-1.63,12.14,12.14,0,0,1,1.2-1.67,21.45,21.45,0,0,1,2.29-2.29,15,15,0,0,1,1.92-1.42,2.54,2.54,0,0,1,1.13-.46,1.36,1.36,0,0,1,.91.56,1.44,1.44,0,0,1,.38,1,2.26,2.26,0,0,1-.59,1,15.76,15.76,0,0,1-1.73,1.68,39.37,39.37,0,0,1-3.16,2.4c-.14.3-.28.6-.41.91a1,1,0,0,0-.18.46.42.42,0,0,0,.45.5,7,7,0,0,0,2.42-1,32.49,32.49,0,0,0,4.29-2.9c.62-.48,1.13-.9,1.54-1.27s.79-.72,1.13-1a7.29,7.29,0,0,1,.83-.73.91.91,0,0,1,.56-.23.69.69,0,0,1,.67.43,2.23,2.23,0,0,1-.43,2.33c-.34.43-1,1.16-1.86,2.18S174,65,173.08,66.14s-1.79,2.38-2.71,3.79l1.17-.92c.74-.58,1.53-1.19,2.36-1.82s1.52-1.13,2.06-1.5,1.21-.8,2-1.28c0,.37-.09.75-.13,1.13q-2.65,2.2-4.78,4.23c-1.42,1.35-2.5,2.45-3.26,3.27l-1.33,1.45c-.34.37-.65.72-.92,1s-.51.58-.69.76a.74.74,0,0,1-.42.25c-.24,0-.43-.28-.59-.76a3.43,3.43,0,0,1-.18-1.27,1.81,1.81,0,0,1,.25-.86A73.87,73.87,0,0,1,172.39,64.54Z"/></svg>